<svg id="Layer_1" data-name="Layer 1" xmlns="http://www.w3.org/2000/svg" viewBox="0 0 413 341"><defs><style>.cls-1{fill:#231f20;}.cls-2{fill:#fff;}</style></defs><path class="cls-1" d="M350.1,161.13c.55,0,1.53,0,2.92-.1a3.81,3.81,0,0,0,2.91-1.15,23.63,23.63,0,0,1-8.85-6.35,27.22,27.22,0,0,1-5.73-9.27c-.28-.56-.83-1.77-1.66-3.65S338,136.8,337,134.78s-1.91-3.85-2.81-5.52a10.23,10.23,0,0,0-1.77-2.71c-.42-.13-1.12-.41-2.09-.83s-2-.8-3-1.14-2-.66-2.91-.94a13.29,13.29,0,0,1-1.77-.63h-.84c-.55.14-1.53.32-2.91.52a24.27,24.27,0,0,1-2.71.32c-.28.69-.9,1.94-1.87,3.75s-2,3.64-3.13,5.52-2.22,3.64-3.33,5.31a25.2,25.2,0,0,1-2.5,3.33h-.63a6,6,0,0,1-2.08-.31,5.9,5.9,0,0,0-2.08-.32,3,3,0,0,0,1.25,2.71,2.46,2.46,0,0,1,1.25,2.09l-.21.83a7.09,7.09,0,0,1-.31,1.56,10.41,10.41,0,0,1-.52,1.56,1.85,1.85,0,0,1,.93.32,3.58,3.58,0,0,1,.73.52v.2a4,4,0,0,1-.73,2.19,8.51,8.51,0,0,1-1.87,2.08,25,25,0,0,1-2.29,1.67,3.87,3.87,0,0,1-2,.73l-.42-.21c-.14-.28-.31-.69-.52-1.25a4.23,4.23,0,0,1-.31-1,16.3,16.3,0,0,1-3.12.1,1.78,1.78,0,0,1-1.26-.62,4.72,4.72,0,0,1-.72-1.46,14.94,14.94,0,0,0-1.15-2.39,3.6,3.6,0,0,0-1-1.05c-.28-.13-.49-.24-.62-.31a.64.64,0,0,1-.32-.31,3.09,3.09,0,0,1-.1-1,11.72,11.72,0,0,1,2.29-6.67,41,41,0,0,0,3.54-6c.28-.13.48-.62.63-1.46a6.54,6.54,0,0,1,.41-1.66c.28-1,.66-2.33,1.15-4.06s1-3.4,1.45-5,.94-3,1.36-4.27.69-2,.83-2.29a8.34,8.34,0,0,0,.84-1.46c.41-.83.83-1.74,1.24-2.71s.84-1.84,1.25-2.6a4.24,4.24,0,0,0,.63-1.57,43.68,43.68,0,0,0,2.6-6.24,9.83,9.83,0,0,1,3.86-5c1.11,1.53,1.84,2.53,2.18,3s1.29.73,2.82.73c0-.28,0-.84-.11-1.67s-.52-1-1.35-.42a5.48,5.48,0,0,1-1.46-2,16.27,16.27,0,0,1-1-2.19l.41-1.25a8,8,0,0,1,.42-1V90.52a2.89,2.89,0,0,0-.62-2.08,8.52,8.52,0,0,0-1.46-1.15l-1.67-1a4.3,4.3,0,0,1-1.46-1.77c0-.28-.07-1.07-.2-2.4a10,10,0,0,0-.42-2.39c-.14,0-.45-.21-.94-.62s-.73-.77-.73-1a9.88,9.88,0,0,1-.52-2,13.58,13.58,0,0,1-.31-2c-.28-.28-.73-.8-1.35-1.57l-1.88-2.29a27.86,27.86,0,0,0-1.87-2.08l-1.36-1.36a39.89,39.89,0,0,1-6.66-9.16q-2.51-4.78-5.63-9.58-3.12-5.2-6-10a22,22,0,0,1-2.91-11.66,5.27,5.27,0,0,1,1-3.13,3.17,3.17,0,0,1,2.71-1.45,15.8,15.8,0,0,1,2,.2,11.47,11.47,0,0,1,2.61.73,7.85,7.85,0,0,1,2.19,1.36,2.46,2.46,0,0,1,.93,1.87h5a6.66,6.66,0,0,1,.31,2,2,2,0,0,0,1.15,2c1.11-.56,1.53-1.08,1.25-1.56A8,8,0,0,0,293,26.78a7.34,7.34,0,0,1-1.25-1.56c-.28-.48.14-1.07,1.25-1.77h5c.14.28.28.59.42.94a2.06,2.06,0,0,0,.41.73V26q0,.42-.21,2.4c-.14,1.32-.24,2.7-.31,4.16s-.14,2.81-.21,4.06-.1,2-.1,2.29v1a3.49,3.49,0,0,0,.21,1.45c.13.28.62.56,1.46.84v-4a.54.54,0,0,0,.62.62,6.75,6.75,0,0,0,1.35-.2,2.77,2.77,0,0,0,1.15-.42h.42c.55,0,1.17.52,1.87,1.56a5,5,0,0,1,1,2.4,3.42,3.42,0,0,1-.52,1.87,3.45,3.45,0,0,0-.52,1.88,11.32,11.32,0,0,0,.21,2,3,3,0,0,0,.62,1.56l1.25.41,1.25.42A3.76,3.76,0,0,1,310.73,53c.28,1.25.59,2.47.94,3.64a6.51,6.51,0,0,0,1.88,3c.9.84,2.53,1,4.89.63a1.27,1.27,0,0,0-.62.73,2.39,2.39,0,0,0-.21.73v1c0,.28.07,1,.21,2.29a4.42,4.42,0,0,0,.62,2.29,2.25,2.25,0,0,1,1.67-.63,2.65,2.65,0,0,1,.83.32,2.46,2.46,0,0,0,.83.31.61.61,0,0,0,.42.21h.42a1.7,1.7,0,0,0,1.87-1.67,2.92,2.92,0,0,1,1.25-2.29l1.15-1c.62-.55,1.07-.83,1.35-.83a3.87,3.87,0,0,0,1.25-2.09c.28-1,.52-2,.73-3a13.62,13.62,0,0,1,1-3.12,5,5,0,0,1,2.6-2.4l.84.42.83.42h.83a13.32,13.32,0,0,1,1.57-3q1.35-2.19,2.81-4.59T343.44,40a8.37,8.37,0,0,0,1.25-2.39c0-.56,0-1.6-.11-3.13a10.49,10.49,0,0,1,.11-2.92,12.94,12.94,0,0,1,3.75-6.24A12,12,0,0,0,352,18.66a2.94,2.94,0,0,0,3.33-1.25A14.86,14.86,0,0,0,357,13.56c.42-1.46.84-2.85,1.25-4.17s1.18-2,2.3-2h.41a10.47,10.47,0,0,1,1.25.21c.7.14,1,.28,1,.42h.84a10.77,10.77,0,0,0,.73-.94c.34-.48.65-.73.93-.73a15,15,0,0,1,2.5-.41c1.25-.14,2.09-.21,2.5-.21v4.79h-.62a10.87,10.87,0,0,0,.62,3.33,18.63,18.63,0,0,0,1.67,3.64,13.2,13.2,0,0,0,2.5,3.13,9.56,9.56,0,0,0,3.12,2V24.7a14.64,14.64,0,0,1-1,4.37c-.7,1.95-1.18,3.34-1.46,4.17a3,3,0,0,1-1.35,1.56,6.2,6.2,0,0,0-1.67,1.36,5.78,5.78,0,0,0-1.14,2.08,5.68,5.68,0,0,0,.2,3.33c-1,.14-1.49,0-1.56-.52a12.64,12.64,0,0,1-.1-1.77,2.58,2.58,0,0,1,.42-1.46,3.46,3.46,0,0,0,.41-1.87v-.21a2.21,2.21,0,0,0-.83-.42,3.86,3.86,0,0,0-.83-.2,11.66,11.66,0,0,0-1.46,3.74,27.39,27.39,0,0,0-.21,3.75c0,1.39,0,2.68.1,3.86a22.79,22.79,0,0,0,.52,3.64h-2.29c.14,0,.32.28.52.84a4.46,4.46,0,0,1,.32,1,6.15,6.15,0,0,1-.32,1.46c-.2.69-.38,1-.52,1h-4.37a8.12,8.12,0,0,0,.21,2.39,4.71,4.71,0,0,1,.2,1.56h-5.83l-2.08,1.88v6.87c-2.92,0-4.65.35-5.21,1a3.15,3.15,0,0,0-.62,2.5c.14,1,.24,2,.31,2.92s-.66,1.67-2.19,2.08a5.8,5.8,0,0,1-1.77.21c-.76,0-1.56,0-2.39.1a7.26,7.26,0,0,0-2.19.52,1.49,1.49,0,0,0-.94,1.46,2.82,2.82,0,0,0,.42,1.88,4.31,4.31,0,0,1,.42,2.5H338V80.94a3.88,3.88,0,0,0-2.19,1.14,3.23,3.23,0,0,0-1.35,2.4,4,4,0,0,0,.52,2c.35.62.73,1.25,1.15,1.87a7.82,7.82,0,0,1,.93,1.88,2.79,2.79,0,0,1-.1,2l2.5.41a13.17,13.17,0,0,1,1.87.52c.56.21.84.46.84.73v.63a5.85,5.85,0,0,1-.42,1.25,5.67,5.67,0,0,0-.42,1.25v.21a9.71,9.71,0,0,0,1,3.75c.7,1.52,1.49,3.09,2.4,4.68a23.78,23.78,0,0,0,2.92,4.17,12.08,12.08,0,0,0,2.6,2.39q.42,2.92.73,5.83a23.31,23.31,0,0,1-.11,5.84,3.06,3.06,0,0,1,1.67-.84h1.67a5.31,5.31,0,0,1,5.2,2.92,39.14,39.14,0,0,1,2.5,6.46,40.8,40.8,0,0,0,2.61,6.66,6.29,6.29,0,0,0,5.31,3.54,12.43,12.43,0,0,0,1.35,5.63,7.86,7.86,0,0,0,2.5,2.7,7.37,7.37,0,0,0,2.5,1.05c.76.14,1.15.34,1.15.62,0,1.95-.32,2.88-.94,2.81a4.56,4.56,0,0,0-2.6.94,21.45,21.45,0,0,0-1.67,2.19c-.83,1.18-1.32,1.91-1.46,2.18l-.41.42a.62.62,0,0,1-.42.21,5.68,5.68,0,0,1-2.29,0c-1.25-.14-2.09-.21-2.5-.21,0,1.11.17,1.8.52,2.08s-.18.76-1.56,1.46c-.28.14-.8.35-1.57.63s-1.56.58-2.39.93-1.63.7-2.4,1.05a4.83,4.83,0,0,1-1.77.52l-.62,1.66a4.09,4.09,0,0,1-1.56-1.35,22.3,22.3,0,0,1-1.77-2.5,18.76,18.76,0,0,1-1.36-2.61A5.37,5.37,0,0,1,350.1,161.13ZM289.7,29.91h1v-.63h-1Zm11.45,21.24H302v-.83h-.84Zm3.54-1.66a.83.83,0,1,0,0,1.66c.28,0,.42-.27.42-.83S305,49.49,304.69,49.49Zm8.13,61.23c0,.28.24.49.73.63a4.53,4.53,0,0,0,.93.21,10.58,10.58,0,0,0-.1-1.25,1.66,1.66,0,0,0-.73-1.25l-.42.83Zm25.2,0h1a18.84,18.84,0,0,0-.31-2.5c-.21-1.24-.66-1.87-1.35-1.87l-.42.21Zm4.17-37.49c-.28-.13-.42,0-.42.42s.14.56.42.42Q343,73.65,342.19,73.23Zm4.58,74.15a2,2,0,0,0,1,1.88l.83-.84A2.39,2.39,0,0,0,346.77,147.38Zm5.83-97.06a4.2,4.2,0,0,0,.73,2.71,4.35,4.35,0,0,0,2,2.08,7.3,7.3,0,0,0,1.56-1.66,3.94,3.94,0,0,0,.94-2.3,2.27,2.27,0,0,0-.84-1.77,2.56,2.56,0,0,0-1.66-.73A2.59,2.59,0,0,0,352.6,50.32Zm6.25-32.7c0,1.81.69,2.71,2.08,2.71V17.62Zm4.37,35.2a.84.84,0,0,0,0,1.67q.63,0,.63-.84C363.85,53.1,363.64,52.82,363.22,52.82Zm4.17-37.28a.55.55,0,0,0-.63.62.56.56,0,0,0,.63.63c.28,0,.41-.21.41-.63S367.67,15.54,367.39,15.54Z"/><path class="cls-2" d="M11,160.65,57.14,90.24,15.35,25.72H47.2L74.26,69.07l26.51-43.35h31.57l-42,65.53,46.11,69.4H103.62L73.71,114l-30,46.67Z"/><path class="cls-2" d="M236.8,111l26.42,8.37q-6.08,22.1-20.2,32.82T207.17,163q-26.88,0-44.18-18.36T145.68,94.38q0-33.69,17.4-52.33t45.74-18.63q24.77,0,40.22,14.63,9.21,8.66,13.81,24.85l-27,6.44a28.58,28.58,0,0,0-10-16.56q-7.6-6.08-18.46-6.08-15,0-24.34,10.77t-9.35,34.88q0,25.59,9.21,36.45t23.93,10.86a27.28,27.28,0,0,0,18.68-6.9Q233.4,125.86,236.8,111Z"/><path class="cls-2" d="M37.27,325V191.17H64.51V302.26h67.74V325Z"/><path class="cls-2" d="M273.35,325H243.72l-11.78-30.65H178L166.86,325H138l52.56-134.94h28.81Zm-50.16-53.39L204.6,221.54l-18.23,50.07Z"/><path class="cls-2" d="M287.9,190.06h53.93q16,0,23.89,1.34A35,35,0,0,1,379.8,197a34.62,34.62,0,0,1,10.35,11.27A30.5,30.5,0,0,1,394.3,224a32,32,0,0,1-19,29.27q12.33,3.58,19,12.24a32.54,32.54,0,0,1,6.62,20.34,40,40,0,0,1-4.28,17.9A36,36,0,0,1,385,317.68q-7.41,5.2-18.27,6.4-6.81.74-32.85.92H287.9Zm27.24,22.46v31.2H333q15.92,0,19.79-.46,7-.82,11-4.83a14.25,14.25,0,0,0,4-10.54,14.82,14.82,0,0,0-3.45-10.17q-3.45-3.91-10.27-4.74-4.05-.47-23.28-.46Zm0,53.66v36.08h25.22q14.73,0,18.68-.83a16.89,16.89,0,0,0,9.9-5.38q3.81-4.28,3.82-11.46a17.56,17.56,0,0,0-2.95-10.31,16.66,16.66,0,0,0-8.51-6.17q-5.57-1.92-24.16-1.93Z"/></svg>